<?xml version="1.0" standalone="no"?><!DOCTYPE svg PUBLIC "-//W3C//DTD SVG 1.1//EN" "http://www.w3.org/Graphics/SVG/1.1/DTD/svg11.dtd"><svg t="1747926873067" class="icon" viewBox="0 0 2821 1024" version="1.1" xmlns="http://www.w3.org/2000/svg" p-id="52672" xmlns:xlink="http://www.w3.org/1999/xlink" width="550.9765625" height="200"><path d="M1145.757564 991.898626h-465.70453a16.014096 16.014096 0 0 0-16.052411 16.048928 16.015837 16.015837 0 0 0 16.052411 16.052411h465.70453a16.015837 16.015837 0 0 0 16.052411-16.052411 16.014096 16.014096 0 0 0-16.052411-16.048928z m637.498592-65.726585H1441.838076c-8.890914 0-16.048928 7.375715-16.048928 16.26837 0 8.892656 7.156272 16.270112 16.048928 16.270113h341.41808c8.890914 0 16.052411-7.375715 16.052411-16.270113 0-9.110357-7.159755-16.268371-16.052411-16.26837z m170.702074 0h-74.610534c-8.894398 0-16.052411 7.375715-16.052411 16.26837 0 8.892656 7.156272 16.270112 16.052411 16.270113h74.610534c8.904847 0 16.061119-7.375715 16.061119-16.270113 0-9.110357-7.156272-16.268371-16.061119-16.26837zM1317.117966 991.898626H1242.066805a16.014096 16.014096 0 0 0-16.052411 16.048928 16.015837 16.015837 0 0 0 16.052411 16.052411h75.051161a16.015837 16.015837 0 0 0 16.052411-16.052411 16.014096 16.014096 0 0 0-16.052411-16.048928z m-484.358905-163.768727h49.021071c9.108616 0 16.266629-7.375715 16.266629-16.270113 0-8.890914-7.375715-16.268371-16.266629-16.26837h-49.021071c-8.894398 0-16.270112 7.375715-16.270112 16.26837-0.21596 8.894398 7.156272 16.270112 16.270112 16.270113z m734.671671-16.268371c0 8.892656 7.375715 16.270112 16.266629 16.270112h119.733884c9.112099 0 16.270112-7.375715 16.270112-16.270112 0-8.890914-7.372231-16.268371-16.270112-16.26837h-119.733884c-8.889173 0-16.266629 7.158013-16.266629 16.26837z m-638.583614 0c0 8.892656 7.373973 16.270112 16.26837 16.270112h152.486584c9.112099 0 16.270112-7.375715 16.270112-16.270112 0-8.890914-14.533728-18.654375-23.428125-18.654375l6.942054 2.386005h-152.272366c-8.892656 0-16.266629 7.158013-16.266629 16.26837zM1039.906046 861.1003c-8.892656 0-16.266629 7.375715-16.266629 16.266629 0 8.894398 7.373973 16.271854 16.266629 16.271854h598.456941c8.889173 0 16.266629-7.375715 16.266629-16.271854 0-8.889173-7.375715-16.266629-16.266629-16.266629h-598.456941z" fill="#bfbfbf" p-id="52673"></path><path d="M1703.575798 276.943711c-8.603549-24.403427-30.276132-41.969296-56.565721-45.837409l-185.420412-27.169102-80.52678-164.684814c-11.642657-23.842628-36.791492-39.252386-64.079023-39.252386-27.22135 0-52.338836 15.409757-64.012843 39.252386l-80.55987 164.700488-185.404737 27.203934c-26.303522 3.784517-47.993522 21.33297-56.597071 45.870501-8.586133 24.777873-2.189203 51.692699 16.682874 70.240836l136.087592 133.900132-31.564923 185.540583c-4.430654 25.862895 7.076158 52.38586 29.393137 67.609265 21.824104 14.680023 51.083136 16.291011 74.586151 3.93952l161.424522-85.683685 161.525535 85.699359a72.990837 72.990837 0 0 0 33.94222 8.434613c14.491929 0 28.527557-4.27565 40.661347-12.438572 22.214224-15.157224 33.703619-41.664514 29.274707-67.525668l-31.547507-185.557999 136.103268-133.896649c18.835502-18.569036 25.234174-45.499538 16.597534-70.345333z m-40.440163 46.142192l-148.731675 146.336962 34.518693 203.03853c2.239709 13.030719-3.495409 25.962167-14.84896 33.717552-11.625241 7.807634-27.306689 8.640123-39.675596 2.123021L1316.985603 614.148839l-177.274906 94.102623c-12.508237 6.585024-28.205359 5.702028-39.677338-2.035941-11.471979-7.82505-17.208839-20.773913-14.967389-33.806375l34.534367-203.003697-148.712517-146.336962c-9.43778-9.26536-12.661498-22.656593-8.436355-34.856565 4.395821-12.49082 15.646616-21.48449 29.443643-23.469924l203.15696-29.818089 88.416268-180.770316c6.008551-12.285311 19.176858-20.22879 33.532942-20.228789 14.408332 0 27.576638 7.926063 33.58519 20.213115L1438.98532 234.908234 1642.091773 264.656659c13.779611 2.035941 25.080913 11.064443 29.461059 23.487341 4.24256 12.267894 1.018841 25.643452-8.417197 34.941903z" fill="#bfbfbf" p-id="52674"></path><path d="M1314.726736 271.529049c-34.755551 0-62.758884 10.606399-83.1897 31.498742C1197.427622 337.903513 1198.155615 388.559955 1198.206122 390.716067c0.203768 9.230528 7.757127 16.562702 16.954564 16.562702h0.323939c9.350699-0.168936 16.783887-7.908647 16.648042-17.259346 0-0.388379-0.306523-38.93193 23.825212-63.418953 13.798769-14.018212 33.586931-21.111785 58.753183-21.111786 9.369857 0 16.971981-7.602124 16.97198-16.970239 0-9.369857-7.588191-16.989397-16.956306-16.989396z" fill="#bfbfbf" p-id="52675"></path></svg>