<?xml version="1.0" standalone="no"?><!DOCTYPE svg PUBLIC "-//W3C//DTD SVG 1.1//EN" "http://www.w3.org/Graphics/SVG/1.1/DTD/svg11.dtd"><svg t="1747926738238" class="icon" viewBox="0 0 1024 1024" version="1.1" xmlns="http://www.w3.org/2000/svg" p-id="50052" xmlns:xlink="http://www.w3.org/1999/xlink" width="200" height="200"><path d="M137.31 635.345L62.835 530.618c-11.636-11.636-18.618-25.6-18.618-41.89-2.327-27.928 20.946-48.873 46.546-48.873l186.181-2.328c27.928 0 51.2 23.273 48.873 51.2-2.327 13.964-6.982 27.928-18.618 39.564l-79.127 107.054c-25.6 23.273-65.164 23.273-90.764 0z" fill="#bfbfbf" p-id="50053"></path><path d="M560.873 930.91c-109.382 0-211.782-41.892-290.91-116.365-13.963-13.963-13.963-34.909 0-48.872 13.964-13.964 34.91-13.964 48.873 0C384 828.509 470.11 863.418 560.873 863.418c95.418 0 186.182-37.236 251.345-107.054 67.491-69.819 100.073-160.582 95.418-258.328-9.309-176.872-153.6-323.49-332.8-332.8-97.745-4.654-188.509 30.255-258.327 95.419C246.691 328.145 209.455 416.582 209.455 512c0 18.618-16.291 34.91-34.91 34.91s-34.909-16.292-34.909-34.91c0-116.364 46.546-223.418 130.328-302.545C353.745 130.327 463.127 88.436 579.49 93.09 793.6 102.4 968.145 276.945 977.455 491.055c4.654 116.363-34.91 225.745-116.364 309.527-76.8 83.782-183.855 130.327-300.218 130.327z" fill="#bfbfbf" p-id="50054"></path><path d="M649.31 674.91c-9.31 0-18.62-2.328-23.274-9.31l-76.8-79.127a116.13 116.13 0 0 1-34.909-83.782v-153.6c0-18.618 16.291-34.91 34.91-34.91s34.908 16.292 34.908 34.91v153.6c0 9.309 2.328 23.273 13.964 34.909l79.127 79.127c13.964 13.964 13.964 34.91 0 48.873-9.309 6.982-18.618 9.31-27.927 9.31z" fill="#bfbfbf" p-id="50055"></path></svg>