<?xml version="1.0" standalone="no"?><!DOCTYPE svg PUBLIC "-//W3C//DTD SVG 1.1//EN" "http://www.w3.org/Graphics/SVG/1.1/DTD/svg11.dtd"><svg t="1747927012767" class="icon" viewBox="0 0 1111 1024" version="1.1" xmlns="http://www.w3.org/2000/svg" p-id="58592" xmlns:xlink="http://www.w3.org/1999/xlink" width="216.9921875" height="200"><path d="M290.99804444 1009.5616C124.9735111 917.8112 11.37777777 738.67946666 11.37777777 533.33333333 11.37777777 231.86773333 256.0455111-12.8 557.5111111-12.8s546.13333333 244.66773333 546.13333334 546.13333333c0 198.79253333-104.8576 371.37066667-262.144 467.49013333-26.2144-65.536-74.27413333-117.9648-137.6256-148.54826666C824.02417777 795.47733333 907.03644444 673.14346666 907.03644444 533.33333333c0-192.23893333-157.2864-349.52533333-349.52533334-349.52533333s-349.52533333 157.2864-349.52533333 349.52533333c0 144.1792 89.56586667 268.6976 214.08426667 323.31093333-58.9824 32.768-107.04213333 87.38133333-131.072 152.91733334z" fill="#C6EAC6" p-id="58593"></path><path d="M609.9399111 679.69706666c-45.8752 0-54.61333333-113.59573333-54.61333333-113.59573333l109.22666667-2.18453333c-2.18453333 0-6.5536 115.78026667-54.61333334 115.78026666zM470.12977777 439.3984h4.36906667c24.02986667 0 43.69066667 19.6608 43.69066666 43.69066666s-19.6608 43.69066667-43.69066666 43.69066667-43.69066667-19.6608-43.69066667-43.69066667c0-8.73813333 2.18453333-15.29173333 6.5536-21.84533333h-78.6432c-6.5536 0-10.92266667-4.36906667-10.92266667-10.92266667s4.36906667-10.92266667 10.92266667-10.92266666H470.12977777zM767.2263111 445.952h4.36906667c24.02986667 0 43.69066667 19.6608 43.69066667 43.69066666s-19.6608 43.69066667-43.69066667 43.69066667-43.69066667-19.6608-43.69066667-43.69066667c0-8.73813333 2.18453333-15.29173333 6.5536-21.84533333h-78.6432c-6.5536 0-10.92266667-4.36906667-10.92266666-10.92266667s4.36906667-10.92266667 10.92266666-10.92266666h111.4112z" fill="#C6EAC6" p-id="58594"></path></svg>