<?xml version="1.0" standalone="no"?>
<!DOCTYPE svg PUBLIC "-//W3C//DTD SVG 1.1//EN" "http://www.w3.org/Graphics/SVG/1.1/DTD/svg11.dtd"><svg t="1747926112072"
  class="icon" viewBox="0 0 1024 1024" version="1.1" xmlns="http://www.w3.org/2000/svg" p-id="39536"
  xmlns:xlink="http://www.w3.org/1999/xlink" width="200" height="200">
  <path
    d="M529.9 594.5c-71.5 0-138.6-27.6-189.2-77.6-50.5-50.1-78.4-116.6-78.4-187.4S290.2 192 340.7 142c50.5-50.1 117.7-77.6 189.2-77.6S668.5 91.9 719 142c50.5 50.1 78.4 116.6 78.4 187.4S769.6 466.8 719 516.9c-50.5 50-117.7 77.6-189.1 77.6z m0-504.9c-133.5 0-242.1 107.6-242.1 239.8s108.6 239.8 242.1 239.8S772 461.6 772 329.4 663.4 89.6 529.9 89.6z"
    fill="#ff4d4f" p-id="39537"></path>
  <path d="M529.2 568.3C318.1 568.3 147 737.8 147 946.9h764.4c0-209.1-171.1-378.6-382.2-378.6z" fill="#ff4d4f"
    p-id="39538"></path>
  <path
    d="M924.1 959.6H134.2V947c0-52.8 10.4-104.1 31-152.3 19.9-46.6 48.4-88.4 84.6-124.4 36.3-35.9 78.5-64.1 125.5-83.9C424 566 475.7 555.6 529 555.6c53.3 0 105 10.3 153.7 30.8 47 19.7 89.3 47.9 125.5 83.9 36.3 35.9 64.7 77.8 84.6 124.4 20.6 48.3 31 99.5 31 152.3v12.6z m-764.2-25.3h738.5c-6.7-196-169.8-353.4-369.2-353.4-199.5 0-362.5 157.4-369.3 353.4zM537.7 489.5c-7.6 0-15.2-0.4-22.9-1.3-50.3-5.9-95.1-30.7-126.2-69.9l20-15.6c55.8 70.2 158.8 82.3 229.6 27.1l15.7 19.9c-33.4 25.9-74 39.8-116.2 39.8z"
    fill="#ff4d4f" p-id="39539"></path>
  <path d="M659.9 443.6l-15.7-19.9c12.5-9.8 23.5-21.3 32.6-34.1l20.9 14.5c-10.6 14.9-23.3 28.2-37.8 39.5z"
    fill="#ff4d4f" p-id="39540"></path>
</svg>